<?xml version="1.0" encoding="utf-8"?>
<svg xmlns="http://www.w3.org/2000/svg" xmlns:xlink="http://www.w3.org/1999/xlink" style="margin: auto; background: rgb(255, 255, 255); display: block; shape-rendering: auto;" width="194px" height="194px" viewBox="0 0 100 100" preserveAspectRatio="xMidYMid">
<g transform="rotate(0 50 50)">
  <rect x="44" y="29" rx="5.5200000000000005" ry="3" width="12" height="6" fill="#f0f7f5">
    <animate attributeName="opacity" values="1;0" keyTimes="0;1" dur="0.704225352112676s" begin="-0.6901408450704224s" repeatCount="indefinite"></animate>
  </rect>
</g><g transform="rotate(7.2 50 50)">
  <rect x="44" y="29" rx="5.5200000000000005" ry="3" width="12" height="6" fill="#f0f7f5">
    <animate attributeName="opacity" values="1;0" keyTimes="0;1" dur="0.704225352112676s" begin="-0.6760563380281689s" repeatCount="indefinite"></animate>
  </rect>
</g><g transform="rotate(14.4 50 50)">
  <rect x="44" y="29" rx="5.5200000000000005" ry="3" width="12" height="6" fill="#f0f7f5">
    <animate attributeName="opacity" values="1;0" keyTimes="0;1" dur="0.704225352112676s" begin="-0.6619718309859154s" repeatCount="indefinite"></animate>
  </rect>
</g><g transform="rotate(21.6 50 50)">
  <rect x="44" y="29" rx="5.5200000000000005" ry="3" width="12" height="6" fill="#f0f7f5">
    <animate attributeName="opacity" values="1;0" keyTimes="0;1" dur="0.704225352112676s" begin="-0.6478873239436619s" repeatCount="indefinite"></animate>
  </rect>
</g><g transform="rotate(28.8 50 50)">
  <rect x="44" y="29" rx="5.5200000000000005" ry="3" width="12" height="6" fill="#f0f7f5">
    <animate attributeName="opacity" values="1;0" keyTimes="0;1" dur="0.704225352112676s" begin="-0.6338028169014083s" repeatCount="indefinite"></animate>
  </rect>
</g><g transform="rotate(36 50 50)">
  <rect x="44" y="29" rx="5.5200000000000005" ry="3" width="12" height="6" fill="#f0f7f5">
    <animate attributeName="opacity" values="1;0" keyTimes="0;1" dur="0.704225352112676s" begin="-0.6197183098591548s" repeatCount="indefinite"></animate>
  </rect>
</g><g transform="rotate(43.2 50 50)">
  <rect x="44" y="29" rx="5.5200000000000005" ry="3" width="12" height="6" fill="#f0f7f5">
    <animate attributeName="opacity" values="1;0" keyTimes="0;1" dur="0.704225352112676s" begin="-0.6056338028169013s" repeatCount="indefinite"></animate>
  </rect>
</g><g transform="rotate(50.4 50 50)">
  <rect x="44" y="29" rx="5.5200000000000005" ry="3" width="12" height="6" fill="#f0f7f5">
    <animate attributeName="opacity" values="1;0" keyTimes="0;1" dur="0.704225352112676s" begin="-0.5915492957746478s" repeatCount="indefinite"></animate>
  </rect>
</g><g transform="rotate(57.6 50 50)">
  <rect x="44" y="29" rx="5.5200000000000005" ry="3" width="12" height="6" fill="#f0f7f5">
    <animate attributeName="opacity" values="1;0" keyTimes="0;1" dur="0.704225352112676s" begin="-0.5774647887323943s" repeatCount="indefinite"></animate>
  </rect>
</g><g transform="rotate(64.8 50 50)">
  <rect x="44" y="29" rx="5.5200000000000005" ry="3" width="12" height="6" fill="#f0f7f5">
    <animate attributeName="opacity" values="1;0" keyTimes="0;1" dur="0.704225352112676s" begin="-0.5633802816901408s" repeatCount="indefinite"></animate>
  </rect>
</g><g transform="rotate(72 50 50)">
  <rect x="44" y="29" rx="5.5200000000000005" ry="3" width="12" height="6" fill="#f0f7f5">
    <animate attributeName="opacity" values="1;0" keyTimes="0;1" dur="0.704225352112676s" begin="-0.5492957746478873s" repeatCount="indefinite"></animate>
  </rect>
</g><g transform="rotate(79.2 50 50)">
  <rect x="44" y="29" rx="5.5200000000000005" ry="3" width="12" height="6" fill="#f0f7f5">
    <animate attributeName="opacity" values="1;0" keyTimes="0;1" dur="0.704225352112676s" begin="-0.5352112676056336s" repeatCount="indefinite"></animate>
  </rect>
</g><g transform="rotate(86.4 50 50)">
  <rect x="44" y="29" rx="5.5200000000000005" ry="3" width="12" height="6" fill="#f0f7f5">
    <animate attributeName="opacity" values="1;0" keyTimes="0;1" dur="0.704225352112676s" begin="-0.5211267605633801s" repeatCount="indefinite"></animate>
  </rect>
</g><g transform="rotate(93.6 50 50)">
  <rect x="44" y="29" rx="5.5200000000000005" ry="3" width="12" height="6" fill="#f0f7f5">
    <animate attributeName="opacity" values="1;0" keyTimes="0;1" dur="0.704225352112676s" begin="-0.5070422535211266s" repeatCount="indefinite"></animate>
  </rect>
</g><g transform="rotate(100.8 50 50)">
  <rect x="44" y="29" rx="5.5200000000000005" ry="3" width="12" height="6" fill="#f0f7f5">
    <animate attributeName="opacity" values="1;0" keyTimes="0;1" dur="0.704225352112676s" begin="-0.49295774647887314s" repeatCount="indefinite"></animate>
  </rect>
</g><g transform="rotate(108 50 50)">
  <rect x="44" y="29" rx="5.5200000000000005" ry="3" width="12" height="6" fill="#f0f7f5">
    <animate attributeName="opacity" values="1;0" keyTimes="0;1" dur="0.704225352112676s" begin="-0.47887323943661964s" repeatCount="indefinite"></animate>
  </rect>
</g><g transform="rotate(115.2 50 50)">
  <rect x="44" y="29" rx="5.5200000000000005" ry="3" width="12" height="6" fill="#f0f7f5">
    <animate attributeName="opacity" values="1;0" keyTimes="0;1" dur="0.704225352112676s" begin="-0.4647887323943661s" repeatCount="indefinite"></animate>
  </rect>
</g><g transform="rotate(122.4 50 50)">
  <rect x="44" y="29" rx="5.5200000000000005" ry="3" width="12" height="6" fill="#f0f7f5">
    <animate attributeName="opacity" values="1;0" keyTimes="0;1" dur="0.704225352112676s" begin="-0.4507042253521126s" repeatCount="indefinite"></animate>
  </rect>
</g><g transform="rotate(129.6 50 50)">
  <rect x="44" y="29" rx="5.5200000000000005" ry="3" width="12" height="6" fill="#f0f7f5">
    <animate attributeName="opacity" values="1;0" keyTimes="0;1" dur="0.704225352112676s" begin="-0.4366197183098591s" repeatCount="indefinite"></animate>
  </rect>
</g><g transform="rotate(136.8 50 50)">
  <rect x="44" y="29" rx="5.5200000000000005" ry="3" width="12" height="6" fill="#f0f7f5">
    <animate attributeName="opacity" values="1;0" keyTimes="0;1" dur="0.704225352112676s" begin="-0.42253521126760557s" repeatCount="indefinite"></animate>
  </rect>
</g><g transform="rotate(144 50 50)">
  <rect x="44" y="29" rx="5.5200000000000005" ry="3" width="12" height="6" fill="#f0f7f5">
    <animate attributeName="opacity" values="1;0" keyTimes="0;1" dur="0.704225352112676s" begin="-0.408450704225352s" repeatCount="indefinite"></animate>
  </rect>
</g><g transform="rotate(151.2 50 50)">
  <rect x="44" y="29" rx="5.5200000000000005" ry="3" width="12" height="6" fill="#f0f7f5">
    <animate attributeName="opacity" values="1;0" keyTimes="0;1" dur="0.704225352112676s" begin="-0.3943661971830985s" repeatCount="indefinite"></animate>
  </rect>
</g><g transform="rotate(158.4 50 50)">
  <rect x="44" y="29" rx="5.5200000000000005" ry="3" width="12" height="6" fill="#f0f7f5">
    <animate attributeName="opacity" values="1;0" keyTimes="0;1" dur="0.704225352112676s" begin="-0.380281690140845s" repeatCount="indefinite"></animate>
  </rect>
</g><g transform="rotate(165.6 50 50)">
  <rect x="44" y="29" rx="5.5200000000000005" ry="3" width="12" height="6" fill="#f0f7f5">
    <animate attributeName="opacity" values="1;0" keyTimes="0;1" dur="0.704225352112676s" begin="-0.36619718309859145s" repeatCount="indefinite"></animate>
  </rect>
</g><g transform="rotate(172.8 50 50)">
  <rect x="44" y="29" rx="5.5200000000000005" ry="3" width="12" height="6" fill="#f0f7f5">
    <animate attributeName="opacity" values="1;0" keyTimes="0;1" dur="0.704225352112676s" begin="-0.35211267605633795s" repeatCount="indefinite"></animate>
  </rect>
</g><g transform="rotate(180 50 50)">
  <rect x="44" y="29" rx="5.5200000000000005" ry="3" width="12" height="6" fill="#f0f7f5">
    <animate attributeName="opacity" values="1;0" keyTimes="0;1" dur="0.704225352112676s" begin="-0.33802816901408445s" repeatCount="indefinite"></animate>
  </rect>
</g><g transform="rotate(187.2 50 50)">
  <rect x="44" y="29" rx="5.5200000000000005" ry="3" width="12" height="6" fill="#f0f7f5">
    <animate attributeName="opacity" values="1;0" keyTimes="0;1" dur="0.704225352112676s" begin="-0.32394366197183094s" repeatCount="indefinite"></animate>
  </rect>
</g><g transform="rotate(194.4 50 50)">
  <rect x="44" y="29" rx="5.5200000000000005" ry="3" width="12" height="6" fill="#f0f7f5">
    <animate attributeName="opacity" values="1;0" keyTimes="0;1" dur="0.704225352112676s" begin="-0.3098591549295774s" repeatCount="indefinite"></animate>
  </rect>
</g><g transform="rotate(201.6 50 50)">
  <rect x="44" y="29" rx="5.5200000000000005" ry="3" width="12" height="6" fill="#f0f7f5">
    <animate attributeName="opacity" values="1;0" keyTimes="0;1" dur="0.704225352112676s" begin="-0.2957746478873239s" repeatCount="indefinite"></animate>
  </rect>
</g><g transform="rotate(208.8 50 50)">
  <rect x="44" y="29" rx="5.5200000000000005" ry="3" width="12" height="6" fill="#f0f7f5">
    <animate attributeName="opacity" values="1;0" keyTimes="0;1" dur="0.704225352112676s" begin="-0.2816901408450704s" repeatCount="indefinite"></animate>
  </rect>
</g><g transform="rotate(216 50 50)">
  <rect x="44" y="29" rx="5.5200000000000005" ry="3" width="12" height="6" fill="#f0f7f5">
    <animate attributeName="opacity" values="1;0" keyTimes="0;1" dur="0.704225352112676s" begin="-0.2676056338028168s" repeatCount="indefinite"></animate>
  </rect>
</g><g transform="rotate(223.2 50 50)">
  <rect x="44" y="29" rx="5.5200000000000005" ry="3" width="12" height="6" fill="#f0f7f5">
    <animate attributeName="opacity" values="1;0" keyTimes="0;1" dur="0.704225352112676s" begin="-0.2535211267605633s" repeatCount="indefinite"></animate>
  </rect>
</g><g transform="rotate(230.4 50 50)">
  <rect x="44" y="29" rx="5.5200000000000005" ry="3" width="12" height="6" fill="#f0f7f5">
    <animate attributeName="opacity" values="1;0" keyTimes="0;1" dur="0.704225352112676s" begin="-0.23943661971830982s" repeatCount="indefinite"></animate>
  </rect>
</g><g transform="rotate(237.6 50 50)">
  <rect x="44" y="29" rx="5.5200000000000005" ry="3" width="12" height="6" fill="#f0f7f5">
    <animate attributeName="opacity" values="1;0" keyTimes="0;1" dur="0.704225352112676s" begin="-0.2253521126760563s" repeatCount="indefinite"></animate>
  </rect>
</g><g transform="rotate(244.8 50 50)">
  <rect x="44" y="29" rx="5.5200000000000005" ry="3" width="12" height="6" fill="#f0f7f5">
    <animate attributeName="opacity" values="1;0" keyTimes="0;1" dur="0.704225352112676s" begin="-0.21126760563380279s" repeatCount="indefinite"></animate>
  </rect>
</g><g transform="rotate(252 50 50)">
  <rect x="44" y="29" rx="5.5200000000000005" ry="3" width="12" height="6" fill="#f0f7f5">
    <animate attributeName="opacity" values="1;0" keyTimes="0;1" dur="0.704225352112676s" begin="-0.19718309859154926s" repeatCount="indefinite"></animate>
  </rect>
</g><g transform="rotate(259.2 50 50)">
  <rect x="44" y="29" rx="5.5200000000000005" ry="3" width="12" height="6" fill="#f0f7f5">
    <animate attributeName="opacity" values="1;0" keyTimes="0;1" dur="0.704225352112676s" begin="-0.18309859154929573s" repeatCount="indefinite"></animate>
  </rect>
</g><g transform="rotate(266.4 50 50)">
  <rect x="44" y="29" rx="5.5200000000000005" ry="3" width="12" height="6" fill="#f0f7f5">
    <animate attributeName="opacity" values="1;0" keyTimes="0;1" dur="0.704225352112676s" begin="-0.16901408450704222s" repeatCount="indefinite"></animate>
  </rect>
</g><g transform="rotate(273.6 50 50)">
  <rect x="44" y="29" rx="5.5200000000000005" ry="3" width="12" height="6" fill="#f0f7f5">
    <animate attributeName="opacity" values="1;0" keyTimes="0;1" dur="0.704225352112676s" begin="-0.1549295774647887s" repeatCount="indefinite"></animate>
  </rect>
</g><g transform="rotate(280.8 50 50)">
  <rect x="44" y="29" rx="5.5200000000000005" ry="3" width="12" height="6" fill="#f0f7f5">
    <animate attributeName="opacity" values="1;0" keyTimes="0;1" dur="0.704225352112676s" begin="-0.1408450704225352s" repeatCount="indefinite"></animate>
  </rect>
</g><g transform="rotate(288 50 50)">
  <rect x="44" y="29" rx="5.5200000000000005" ry="3" width="12" height="6" fill="#f0f7f5">
    <animate attributeName="opacity" values="1;0" keyTimes="0;1" dur="0.704225352112676s" begin="-0.12676056338028166s" repeatCount="indefinite"></animate>
  </rect>
</g><g transform="rotate(295.2 50 50)">
  <rect x="44" y="29" rx="5.5200000000000005" ry="3" width="12" height="6" fill="#f0f7f5">
    <animate attributeName="opacity" values="1;0" keyTimes="0;1" dur="0.704225352112676s" begin="-0.11267605633802814s" repeatCount="indefinite"></animate>
  </rect>
</g><g transform="rotate(302.4 50 50)">
  <rect x="44" y="29" rx="5.5200000000000005" ry="3" width="12" height="6" fill="#f0f7f5">
    <animate attributeName="opacity" values="1;0" keyTimes="0;1" dur="0.704225352112676s" begin="-0.09859154929577463s" repeatCount="indefinite"></animate>
  </rect>
</g><g transform="rotate(309.6 50 50)">
  <rect x="44" y="29" rx="5.5200000000000005" ry="3" width="12" height="6" fill="#f0f7f5">
    <animate attributeName="opacity" values="1;0" keyTimes="0;1" dur="0.704225352112676s" begin="-0.08450704225352111s" repeatCount="indefinite"></animate>
  </rect>
</g><g transform="rotate(316.8 50 50)">
  <rect x="44" y="29" rx="5.5200000000000005" ry="3" width="12" height="6" fill="#f0f7f5">
    <animate attributeName="opacity" values="1;0" keyTimes="0;1" dur="0.704225352112676s" begin="-0.0704225352112676s" repeatCount="indefinite"></animate>
  </rect>
</g><g transform="rotate(324 50 50)">
  <rect x="44" y="29" rx="5.5200000000000005" ry="3" width="12" height="6" fill="#f0f7f5">
    <animate attributeName="opacity" values="1;0" keyTimes="0;1" dur="0.704225352112676s" begin="-0.05633802816901407s" repeatCount="indefinite"></animate>
  </rect>
</g><g transform="rotate(331.2 50 50)">
  <rect x="44" y="29" rx="5.5200000000000005" ry="3" width="12" height="6" fill="#f0f7f5">
    <animate attributeName="opacity" values="1;0" keyTimes="0;1" dur="0.704225352112676s" begin="-0.042253521126760556s" repeatCount="indefinite"></animate>
  </rect>
</g><g transform="rotate(338.4 50 50)">
  <rect x="44" y="29" rx="5.5200000000000005" ry="3" width="12" height="6" fill="#f0f7f5">
    <animate attributeName="opacity" values="1;0" keyTimes="0;1" dur="0.704225352112676s" begin="-0.028169014084507036s" repeatCount="indefinite"></animate>
  </rect>
</g><g transform="rotate(345.6 50 50)">
  <rect x="44" y="29" rx="5.5200000000000005" ry="3" width="12" height="6" fill="#f0f7f5">
    <animate attributeName="opacity" values="1;0" keyTimes="0;1" dur="0.704225352112676s" begin="-0.014084507042253518s" repeatCount="indefinite"></animate>
  </rect>
</g><g transform="rotate(352.8 50 50)">
  <rect x="44" y="29" rx="5.5200000000000005" ry="3" width="12" height="6" fill="#f0f7f5">
    <animate attributeName="opacity" values="1;0" keyTimes="0;1" dur="0.704225352112676s" begin="0s" repeatCount="indefinite"></animate>
  </rect>
</g>
<!-- [ldio] generated by https://loading.io/ --></svg>